<svg width="36" height="36" viewBox="0 0 36 36" fill="none" xmlns="http://www.w3.org/2000/svg">
<g clip-path="url(#clip0_53_150)">
<path d="M21.4638 0.269703L22.8171 0.567828L23.9118 0.960453L24.7971 1.41045L25.471 1.89195L25.9806 2.40158L26.3553 2.91008L26.5949 3.40395L26.7423 3.85395L26.8064 4.24095L26.8368 4.54583L26.8188 4.73933V12.7493L26.7423 13.6932L26.5488 14.5201L26.2326 15.212L25.8456 15.7801L25.3956 16.2425L24.904 16.6171L24.3764 16.9051L23.8488 17.1155L23.3571 17.2685L22.9071 17.3675L22.5201 17.4316L22.204 17.462H13.2445L12.214 17.5373L11.3286 17.7432L10.5783 18.0773L9.96288 18.4812L9.46451 18.9627L9.05951 19.4836L8.76138 20.0292L8.53751 20.5793L8.38563 21.1058L8.28101 21.5873L8.22138 21.9912L8.19326 22.3073V26.8962H4.84638L4.53138 26.8478L4.10838 26.7432L3.63476 26.5677L3.10713 26.2977L2.56826 25.9062L2.02938 25.3662L1.50176 24.6743L1.02138 23.789L0.598382 22.6943L0.287882 21.3758L0.0775071 19.7997L0.00100708 17.9547L0.0898821 16.1266L0.329507 14.5685L0.692882 13.2623L1.17326 12.1958L1.71326 11.3408L2.31063 10.6838L2.94401 10.1855L3.57063 9.82883L4.17363 9.5892L4.71363 9.4362L5.19401 9.3597L5.55063 9.34733H5.79026L5.88476 9.3597H18.1191V8.1177H9.35876L9.34638 3.99233L9.31826 3.43545L9.39476 2.92583L9.55788 2.46345L9.80988 2.04045L10.1845 1.65458L10.6536 1.30808L11.2206 1.00995L11.8833 0.734328L12.6449 0.512703L13.5179 0.331578L14.4719 0.184203L15.5384 0.0908281L16.6938 0.0323281L17.9538 0.00195312L19.8573 0.0784531L21.4638 0.269703ZM12.0183 3.2397L11.6718 3.73133L11.5491 4.3467L11.6718 4.9632L12.0183 5.4717L12.5099 5.80583L13.1253 5.94083L13.7406 5.80583L14.2323 5.4717L14.5788 4.9632L14.7014 4.3467L14.5788 3.73133L14.2323 3.2397L13.7406 2.9112L13.1253 2.77733L12.5099 2.9112L12.0183 3.2397ZM31.6529 9.16283L32.068 9.25733L32.5484 9.43283L33.076 9.70283L33.6149 10.1067L34.1549 10.6343L34.6814 11.3375L35.1618 12.2206L35.5791 13.3175L35.8953 14.6416L36.1056 16.1997L36.1821 18.0447L36.0888 19.8908L35.8469 21.449L35.4903 22.7371L35.0099 23.8036L34.4699 24.6586L33.8669 25.3336L33.2403 25.8252L32.6069 26.1886L32.0095 26.4282L31.4695 26.5632L30.9891 26.6397L30.6325 26.6678L30.3929 26.651H18.0584V27.8806H26.8188L26.8368 32.024L26.8649 32.5628L26.7884 33.0725L26.6253 33.5348L26.3676 33.968L25.993 34.3426L25.5306 34.7071L24.9625 35.0052L24.2999 35.2628L23.5383 35.4845L22.6653 35.678L21.7056 35.813L20.6448 35.9176L19.4838 35.9761L18.2238 35.9941L16.3203 35.9356L14.7149 35.7241L13.366 35.426L12.2714 35.0513L11.386 34.6002L10.7121 34.1018L10.2025 33.5922L9.82788 33.0837L9.58826 32.5898L9.43526 32.1398L9.37676 31.7652L9.34638 31.4648L9.35876 31.2725V23.2625L9.43526 22.3006L9.63438 21.4861L9.94488 20.801L10.3375 20.2261L10.7875 19.7525L11.2814 19.3891L11.8079 19.0887L12.3299 18.8783L12.8283 18.7253L13.2794 18.6387L13.6653 18.5802L14.1749 18.5318H22.9353L23.9714 18.4565L24.8568 18.2506L25.6071 17.9345L26.2225 17.5126L26.7164 17.0311L27.1203 16.5102L27.4251 15.9646L27.649 15.4257L27.8009 14.9037L27.9078 14.4233L27.9663 14.0015L27.9944 13.6853V9.09645H31.1298L31.3413 9.10883L31.6529 9.16283ZM21.943 30.5378L21.5965 31.0362L21.4795 31.6527L21.5965 32.2681L21.943 32.7597L22.4414 33.1051L23.0568 33.2221L23.6721 33.1051L24.1638 32.7597L24.5103 32.2681L24.6329 31.6527L24.5103 31.0362L24.1638 30.5378L23.6721 30.1925L23.0568 30.0755L22.4414 30.1925L21.943 30.5378Z" fill="#111827"/>
</g>
<defs>
<clipPath id="clip0_53_150">
<rect width="36" height="36" fill="white"/>
</clipPath>
</defs>
</svg>
